<?xml version="1.0" encoding="us-ascii" standalone="no"?><svg xmlns="http://www.w3.org/2000/svg" xmlns:xlink="http://www.w3.org/1999/xlink" contentStyleType="text/css" height="801.6px" preserveAspectRatio="none" style="width:1218px;height:801px;background:#FFFFFF;" version="1.1" viewBox="0 0 1218 801" width="1218px" zoomAndPan="magnify"><defs/><g><text fill="#000000" font-family="sans-serif" font-size="16.8" font-weight="bold" lengthAdjust="spacing" textLength="175.2" x="513.198" y="28.2422">Event Audio Cabling</text><!--cluster Stage--><g id="cluster_Stage"><path d="M155.796,52.1859 L203.796,52.1859 A4.5,4.5 0 0 1 206.796,55.1859 L215.196,79.1719 L852.996,79.1719 A3,3 0 0 1 855.996,82.1719 L855.996,637.7379 A3,3 0 0 1 852.996,640.7379 L155.796,640.7379 A3,3 0 0 1 152.796,637.7379 L152.796,55.1859 A3,3 0 0 1 155.796,52.1859 " fill="none" style="stroke:#000000;stroke-width:1.7999999999999998;"/><line style="stroke:#000000;stroke-width:1.7999999999999998;" x1="152.796" x2="215.196" y1="79.1719" y2="79.1719"/><text fill="#000000" font-family="sans-serif" font-size="16.8" font-weight="bold" lengthAdjust="spacing" textLength="46.8" x="157.596" y="70.8281">Stage</text></g><!--cluster Back of Dancefloor (FOH)--><g id="cluster_Back of Dancefloor (FOH)"><path d="M908.196,287.9619 L1127.796,287.9619 A4.5,4.5 0 0 1 1130.796,290.9619 L1139.196,314.9479 L1139.796,314.9479 A3,3 0 0 1 1142.796,317.9479 L1142.796,401.9499 A3,3 0 0 1 1139.796,404.9499 L908.196,404.9499 A3,3 0 0 1 905.196,401.9499 L905.196,290.9619 A3,3 0 0 1 908.196,287.9619 " fill="none" style="stroke:#000000;stroke-width:1.7999999999999998;"/><line style="stroke:#000000;stroke-width:1.7999999999999998;" x1="905.196" x2="1139.196" y1="314.9479" y2="314.9479"/><text fill="#000000" font-family="sans-serif" font-size="16.8" font-weight="bold" lengthAdjust="spacing" textLength="218.4" x="909.996" y="306.6041">Back of Dancefloor (FOH)</text></g><!--entity MIC_DJ--><g id="elem_MIC_DJ"><rect fill="#F1F1F1" height="55.7859" rx="3" ry="3" style="stroke:#181818;stroke-width:0.6;" width="97.2" x="172.596" y="94.1859"/><rect fill="#F1F1F1" height="12" style="stroke:#181818;stroke-width:0.6;" width="18" x="245.796" y="100.1859"/><rect fill="#F1F1F1" height="2.4" style="stroke:#181818;stroke-width:0.6;" width="4.8" x="243.396" y="102.5859"/><rect fill="#F1F1F1" height="2.4" style="stroke:#181818;stroke-width:0.6;" width="4.8" x="243.396" y="107.3859"/><text fill="#000000" font-family="sans-serif" font-size="16.8" lengthAdjust="spacing" textLength="49.2" x="190.596" y="134.4281">DJ Mic</text></g><!--entity DJ--><g id="elem_DJ"><rect fill="#F1F1F1" height="55.7859" rx="3" ry="3" style="stroke:#181818;stroke-width:0.6;" width="117.6" x="171.996" y="329.9619"/><rect fill="#F1F1F1" height="12" style="stroke:#181818;stroke-width:0.6;" width="18" x="265.596" y="335.9619"/><rect fill="#F1F1F1" height="2.4" style="stroke:#181818;stroke-width:0.6;" width="4.8" x="263.196" y="338.3619"/><rect fill="#F1F1F1" height="2.4" style="stroke:#181818;stroke-width:0.6;" width="4.8" x="263.196" y="343.1619"/><text fill="#000000" font-family="sans-serif" font-size="16.8" lengthAdjust="spacing" textLength="69.6" x="189.996" y="370.2041">DJ Decks</text></g><!--entity GTR_AMP--><g id="elem_GTR_AMP"><rect fill="#F1F1F1" height="55.7859" rx="3" ry="3" style="stroke:#181818;stroke-width:0.6;" width="141.6" x="409.596" y="329.9619"/><rect fill="#F1F1F1" height="12" style="stroke:#181818;stroke-width:0.6;" width="18" x="527.196" y="335.9619"/><rect fill="#F1F1F1" height="2.4" style="stroke:#181818;stroke-width:0.6;" width="4.8" x="524.796" y="338.3619"/><rect fill="#F1F1F1" height="2.4" style="stroke:#181818;stroke-width:0.6;" width="4.8" x="524.796" y="343.1619"/><text fill="#000000" font-family="sans-serif" font-size="16.8" lengthAdjust="spacing" textLength="93.6" x="427.596" y="370.2041">Guitar Amp</text></g><!--entity MIC_GTR--><g id="elem_MIC_GTR"><rect fill="#F1F1F1" height="55.7859" rx="3" ry="3" style="stroke:#181818;stroke-width:0.6;" width="174" x="389.796" y="94.1859"/><rect fill="#F1F1F1" height="12" style="stroke:#181818;stroke-width:0.6;" width="18" x="539.796" y="100.1859"/><rect fill="#F1F1F1" height="2.4" style="stroke:#181818;stroke-width:0.6;" width="4.8" x="537.396" y="102.5859"/><rect fill="#F1F1F1" height="2.4" style="stroke:#181818;stroke-width:0.6;" width="4.8" x="537.396" y="107.3859"/><text fill="#000000" font-family="sans-serif" font-size="16.8" lengthAdjust="spacing" textLength="126" x="407.796" y="134.4281">Guitar Amp Mic</text></g><!--entity SUB1--><g id="elem_SUB1"><rect fill="#F1F1F1" height="55.7859" rx="3" ry="3" style="stroke:#181818;stroke-width:0.6;" width="152.4" x="683.796" y="94.1859"/><rect fill="#F1F1F1" height="12" style="stroke:#181818;stroke-width:0.6;" width="18" x="812.196" y="100.1859"/><rect fill="#F1F1F1" height="2.4" style="stroke:#181818;stroke-width:0.6;" width="4.8" x="809.796" y="102.5859"/><rect fill="#F1F1F1" height="2.4" style="stroke:#181818;stroke-width:0.6;" width="4.8" x="809.796" y="107.3859"/><text fill="#000000" font-family="sans-serif" font-size="16.8" lengthAdjust="spacing" textLength="104.4" x="701.796" y="134.4281">Subwoofer 1</text></g><!--entity SUB2--><g id="elem_SUB2"><rect fill="#F1F1F1" height="55.7859" rx="3" ry="3" style="stroke:#181818;stroke-width:0.6;" width="152.4" x="671.796" y="329.9619"/><rect fill="#F1F1F1" height="12" style="stroke:#181818;stroke-width:0.6;" width="18" x="800.196" y="335.9619"/><rect fill="#F1F1F1" height="2.4" style="stroke:#181818;stroke-width:0.6;" width="4.8" x="797.796" y="338.3619"/><rect fill="#F1F1F1" height="2.4" style="stroke:#181818;stroke-width:0.6;" width="4.8" x="797.796" y="343.1619"/><text fill="#000000" font-family="sans-serif" font-size="16.8" lengthAdjust="spacing" textLength="104.4" x="689.796" y="370.2041">Subwoofer 2</text></g><!--entity PA_L--><g id="elem_PA_L"><rect fill="#F1F1F1" height="55.7859" rx="3" ry="3" style="stroke:#181818;stroke-width:0.6;" width="104.4" x="713.796" y="565.7499"/><rect fill="#F1F1F1" height="12" style="stroke:#181818;stroke-width:0.6;" width="18" x="794.196" y="571.7499"/><rect fill="#F1F1F1" height="2.4" style="stroke:#181818;stroke-width:0.6;" width="4.8" x="791.796" y="574.1499"/><rect fill="#F1F1F1" height="2.4" style="stroke:#181818;stroke-width:0.6;" width="4.8" x="791.796" y="578.9499"/><text fill="#000000" font-family="sans-serif" font-size="16.8" lengthAdjust="spacing" textLength="56.4" x="731.796" y="605.9921">PA Left</text></g><!--entity PA_R--><g id="elem_PA_R"><rect fill="#F1F1F1" height="55.7859" rx="3" ry="3" style="stroke:#181818;stroke-width:0.6;" width="117.6" x="476.796" y="565.7499"/><rect fill="#F1F1F1" height="12" style="stroke:#181818;stroke-width:0.6;" width="18" x="570.396" y="571.7499"/><rect fill="#F1F1F1" height="2.4" style="stroke:#181818;stroke-width:0.6;" width="4.8" x="567.996" y="574.1499"/><rect fill="#F1F1F1" height="2.4" style="stroke:#181818;stroke-width:0.6;" width="4.8" x="567.996" y="578.9499"/><text fill="#000000" font-family="sans-serif" font-size="16.8" lengthAdjust="spacing" textLength="69.6" x="494.796" y="605.9921">PA Right</text></g><!--entity BOOTH--><g id="elem_BOOTH"><rect fill="#F1F1F1" height="55.7859" rx="3" ry="3" style="stroke:#181818;stroke-width:0.6;" width="165.6" x="171.996" y="565.7499"/><rect fill="#F1F1F1" height="12" style="stroke:#181818;stroke-width:0.6;" width="18" x="313.596" y="571.7499"/><rect fill="#F1F1F1" height="2.4" style="stroke:#181818;stroke-width:0.6;" width="4.8" x="311.196" y="574.1499"/><rect fill="#F1F1F1" height="2.4" style="stroke:#181818;stroke-width:0.6;" width="4.8" x="311.196" y="578.9499"/><text fill="#000000" font-family="sans-serif" font-size="16.8" lengthAdjust="spacing" textLength="117.6" x="189.996" y="605.9921">Booth Monitor</text></g><!--entity MIX--><g id="elem_MIX"><rect fill="#F1F1F1" height="55.7859" rx="3" ry="3" style="stroke:#181818;stroke-width:0.6;" width="94.8" x="944.196" y="329.9619"/><rect fill="#F1F1F1" height="12" style="stroke:#181818;stroke-width:0.6;" width="18" x="1014.996" y="335.9619"/><rect fill="#F1F1F1" height="2.4" style="stroke:#181818;stroke-width:0.6;" width="4.8" x="1012.596" y="338.3619"/><rect fill="#F1F1F1" height="2.4" style="stroke:#181818;stroke-width:0.6;" width="4.8" x="1012.596" y="343.1619"/><text fill="#000000" font-family="sans-serif" font-size="16.8" lengthAdjust="spacing" textLength="46.8" x="962.196" y="370.2041">Mixer</text></g><g id="elem_GMN27"><path d="M955.596,97.7019 L955.596,146.4473 L1209.996,146.4473 L1209.996,109.7019 L1197.996,97.7019 L955.596,97.7019 " fill="#FEFFDD" style="stroke:#181818;stroke-width:0.6;"/><path d="M1197.996,97.7019 L1197.996,109.7019 L1209.996,109.7019 L1197.996,97.7019 " fill="#FEFFDD" style="stroke:#181818;stroke-width:1.2;"/><text fill="#000000" font-family="sans-serif" font-size="15.6" lengthAdjust="spacing" textLength="229.2" x="962.796" y="118.784">Enable phantom power on this</text><text fill="#000000" font-family="sans-serif" font-size="15.6" lengthAdjust="spacing" textLength="180" x="987.396" y="137.1566">mixer input for the mic.</text></g><!--link MIC_DJ to DJ--><g id="link_MIC_DJ_DJ"><path d="M221.196,150.5139 C221.196,195.9579 221.196,277.2099 221.196,322.4859 " fill="none" id="MIC_DJ-to-DJ" style="stroke:#2ECC71;stroke-width:1.2;"/><polygon fill="#2ECC71" points="221.196,329.6859,225.996,318.8859,221.196,323.6859,216.396,318.8859,221.196,329.6859" style="stroke:#2ECC71;stroke-width:1.2;"/><text fill="#000000" font-family="sans-serif" font-size="15.6" lengthAdjust="spacing" textLength="94.8" x="125.196" y="235.976">XLR (normal)</text></g><!--link DJ to MIX--><g id="link_DJ_MIX"><path d="M282.996,329.4939 C282.996,299.9499 282.996,257.9379 282.996,257.9379 C282.996,257.9379 976.452,257.9379 976.452,257.9379 C976.452,257.9379 976.452,292.7499 976.452,322.2939 " fill="none" id="DJ-to-MIX" style="stroke:#E67E22;stroke-width:1.2;"/><polygon fill="#E67E22" points="976.452,329.4939,981.252,318.6939,976.452,323.4939,971.652,318.6939,976.452,329.4939" style="stroke:#E67E22;stroke-width:1.2;"/><text fill="#000000" font-family="sans-serif" font-size="15.6" lengthAdjust="spacing" textLength="231.6" x="630.924" y="253.82">Left &#8226; 50 ft XLR + 1/4" adapter</text></g><!--link DJ to MIX--><g id="link_DJ_MIX"><path d="M276.396,329.6979 C276.396,289.8819 276.396,221.9379 276.396,221.9379 C276.396,221.9379 997.296,221.9379 997.296,221.9379 C997.296,221.9379 997.296,282.6819 997.296,322.4979 " fill="none" id="DJ-to-MIX-1" style="stroke:#E67E22;stroke-width:1.2;"/><polygon fill="#E67E22" points="997.296,329.6979,1002.096,318.8979,997.296,323.6979,992.496,318.8979,997.296,329.6979" style="stroke:#E67E22;stroke-width:1.2;"/><text fill="#000000" font-family="sans-serif" font-size="15.6" lengthAdjust="spacing" textLength="242.4" x="638.052" y="217.82">Right &#8226; 50 ft XLR + 1/4" adapter</text></g><!--link MIC_GTR to MIX--><g id="link_MIC_GTR_MIX"><path d="M555.396,150.4539 C555.396,199.2699 555.396,293.9379 555.396,293.9379 C555.396,293.9379 947.052,293.9379 947.052,293.9379 C947.052,293.9379 947.052,305.3139 947.052,322.4379 " fill="none" id="MIC_GTR-to-MIX" style="stroke:#3498DB;stroke-width:1.2;"/><polygon fill="#3498DB" points="947.052,329.6379,951.852,318.8379,947.052,323.6379,942.252,318.8379,947.052,329.6379" style="stroke:#3498DB;stroke-width:1.2;"/><text fill="#000000" font-family="sans-serif" font-size="15.6" lengthAdjust="spacing" textLength="200.4" x="495.732" y="289.82">50 ft XLR (phantom power)</text></g><!--link MIC_GTR to GTR_AMP--><g id="link_MIC_GTR_GTR_AMP"><path d="M480.396,150.5139 C480.396,195.9579 480.396,284.4099 480.396,329.6859 " fill="none" id="MIC_GTR-GTR_AMP" style="stroke:#181818;stroke-width:1.2;stroke-dasharray:7.0,7.0;"/><text fill="#000000" font-family="sans-serif" font-size="15.6" lengthAdjust="spacing" textLength="110.4" x="368.796" y="235.976">placed in front</text></g><!--link MIX to SUB1--><g id="link_MIX_SUB1"><path d="M952.752,329.3979 C952.752,265.0539 952.752,113.9379 952.752,113.9379 C952.752,113.9379 897.684,113.9379 843.936,113.9379 " fill="none" id="MIX-to-SUB1" style="stroke:#3498DB;stroke-width:1.2;"/><polygon fill="#3498DB" points="836.736,113.9379,847.536,118.7379,842.736,113.9379,847.536,109.1379,836.736,113.9379" style="stroke:#3498DB;stroke-width:1.2;"/><text fill="#000000" font-family="sans-serif" font-size="15.6" lengthAdjust="spacing" textLength="115.2" x="953.952" y="179.948">Left &#8226; 50 ft XLR</text></g><!--link MIX to SUB1--><g id="link_MIX_SUB1"><path d="M949.896,329.5539 C949.896,268.6659 949.896,130.7379 949.896,130.7379 C949.896,130.7379 896.592,130.7379 843.888,130.7379 " fill="none" id="MIX-to-SUB1-1" style="stroke:#3498DB;stroke-width:1.2;"/><polygon fill="#3498DB" points="836.688,130.7379,847.488,135.5379,842.688,130.7379,847.488,125.9379,836.688,130.7379" style="stroke:#3498DB;stroke-width:1.2;"/><text fill="#000000" font-family="sans-serif" font-size="15.6" lengthAdjust="spacing" textLength="126" x="822.696" y="169.424">Right &#8226; 50 ft XLR</text></g><!--link SUB1 to SUB2--><g id="link_SUB1_SUB2"><path d="M777.396,150.5139 C777.396,195.9579 777.396,277.2099 777.396,322.4859 " fill="none" id="SUB1-to-SUB2" style="stroke:#2ECC71;stroke-width:1.2;"/><polygon fill="#2ECC71" points="777.396,329.6859,782.196,318.8859,777.396,323.6859,772.596,318.8859,777.396,329.6859" style="stroke:#2ECC71;stroke-width:1.2;"/><text fill="#000000" font-family="sans-serif" font-size="15.6" lengthAdjust="spacing" textLength="118.8" x="778.596" y="235.976">Left &#8226; short XLR</text></g><!--link SUB1 to SUB2--><g id="link_SUB1_SUB2"><path d="M730.596,150.5139 C730.596,195.9579 730.596,277.2099 730.596,322.4859 " fill="none" id="SUB1-to-SUB2-1" style="stroke:#2ECC71;stroke-width:1.2;"/><polygon fill="#2ECC71" points="730.596,329.6859,735.396,318.8859,730.596,323.6859,725.796,318.8859,730.596,329.6859" style="stroke:#2ECC71;stroke-width:1.2;"/><text fill="#000000" font-family="sans-serif" font-size="15.6" lengthAdjust="spacing" textLength="129.6" x="599.796" y="235.976">Right &#8226; short XLR</text></g><!--link SUB2 to PA_L--><g id="link_SUB2_PA_L"><path d="M765.996,386.3019 C765.996,431.7459 765.996,512.9979 765.996,558.2739 " fill="none" id="SUB2-to-PA_L" style="stroke:#2ECC71;stroke-width:1.2;"/><polygon fill="#2ECC71" points="765.996,565.4739,770.796,554.6739,765.996,559.4739,761.196,554.6739,765.996,565.4739" style="stroke:#2ECC71;stroke-width:1.2;"/><text fill="#000000" font-family="sans-serif" font-size="15.6" lengthAdjust="spacing" textLength="88.8" x="675.996" y="471.764">Left &#8226; 1 XLR</text></g><!--link SUB2 to PA_R--><g id="link_SUB2_PA_R"><path d="M671.46,357.5379 C626.772,357.5379 579.096,357.5379 579.096,357.5379 C579.096,357.5379 579.096,495.1659 579.096,557.9619 " fill="none" id="SUB2-to-PA_R" style="stroke:#2ECC71;stroke-width:1.2;"/><polygon fill="#2ECC71" points="579.096,565.1619,583.896,554.3619,579.096,559.1619,574.296,554.3619,579.096,565.1619" style="stroke:#2ECC71;stroke-width:1.2;"/><text fill="#000000" font-family="sans-serif" font-size="15.6" lengthAdjust="spacing" textLength="99.6" x="478.296" y="411.056">Right &#8226; 1 XLR</text></g><!--link DJ to BOOTH--><g id="link_DJ_BOOTH"><path d="M250.404,386.3019 C250.404,431.7459 250.404,512.9979 250.404,558.2739 " fill="none" id="DJ-to-BOOTH" style="stroke:#9B59B6;stroke-width:1.2;"/><polygon fill="#9B59B6" points="250.404,565.4739,255.204,554.6739,250.404,559.4739,245.604,554.6739,250.404,565.4739" style="stroke:#9B59B6;stroke-width:1.2;"/><text fill="#000000" font-family="sans-serif" font-size="15.6" lengthAdjust="spacing" textLength="190.8" x="58.404" y="471.764">Left &#8226; XLR + 1/4" adapter</text></g><!--link DJ to BOOTH--><g id="link_DJ_BOOTH"><path d="M211.2,386.3019 C211.2,431.7459 211.2,512.9979 211.2,558.2739 " fill="none" id="DJ-to-BOOTH-1" style="stroke:#9B59B6;stroke-width:1.2;"/><polygon fill="#9B59B6" points="211.2,565.4739,216,554.6739,211.2,559.4739,206.4,554.6739,211.2,565.4739" style="stroke:#9B59B6;stroke-width:1.2;"/><text fill="#000000" font-family="sans-serif" font-size="15.6" lengthAdjust="spacing" textLength="201.6" x="8.4" y="492.164">Right &#8226; XLR + 1/4" adapter</text></g><!--link MIC_GTR to GMN27--><g id="link_MIC_GTR_GMN27"><path d="M559.596,150.2739 C559.596,167.3739 559.596,185.9379 559.596,185.9379 C559.596,185.9379 1018.152,185.9379 1018.152,185.9379 C1018.152,185.9379 1018.152,164.8779 1018.152,146.9499 " fill="none" id="MIC_GTR-GMN27" style="stroke:#181818;stroke-width:1.2;stroke-dasharray:7.0,7.0;"/></g><rect fill="#DDDDDD" height="115.7297" id="_legend" rx="9" ry="9" style="stroke:#000000;stroke-width:1.2;" width="259.2" x="927.996" y="662.3379"/><text fill="#000000" font-family="sans-serif" font-size="16.8" font-weight="bold" lengthAdjust="spacing" textLength="100.8" x="939.996" y="686.9801">Cable Class</text><text fill="#000000" font-family="sans-serif" font-size="16.8" font-weight="bold" lengthAdjust="spacing" textLength="60" x="1115.196" y="686.9801">Swatch</text><text fill="#000000" font-family="sans-serif" font-size="16.8" lengthAdjust="spacing" textLength="94.8" x="938.796" y="706.7661">Normal XLR</text><rect fill="#2ECC71" height="19.7859" style="stroke:none;stroke-width:1.2;" width="72" x="1109.196" y="690.5239"/><text fill="#000000" font-family="sans-serif" font-size="16.8" lengthAdjust="spacing" textLength="9.6" x="1109.196" y="706.7661">&#160;&#160;</text><text fill="#000000" font-family="sans-serif" font-size="16.8" lengthAdjust="spacing" textLength="130.8" x="938.796" y="726.552">Long XLR (50 ft)</text><rect fill="#3498DB" height="19.7859" style="stroke:none;stroke-width:1.2;" width="72" x="1109.196" y="710.3098"/><text fill="#000000" font-family="sans-serif" font-size="16.8" lengthAdjust="spacing" textLength="9.6" x="1109.196" y="726.552">&#160;&#160;</text><text fill="#000000" font-family="sans-serif" font-size="16.8" lengthAdjust="spacing" textLength="162" x="938.796" y="746.3379">Long XLR + adapter</text><rect fill="#E67E22" height="19.7859" style="stroke:none;stroke-width:1.2;" width="72" x="1109.196" y="730.0958"/><text fill="#000000" font-family="sans-serif" font-size="16.8" lengthAdjust="spacing" textLength="9.6" x="1109.196" y="746.3379">&#160;&#160;</text><text fill="#000000" font-family="sans-serif" font-size="16.8" lengthAdjust="spacing" textLength="165.6" x="938.796" y="766.1239">Short XLR + adapter</text><rect fill="#9B59B6" height="19.7859" style="stroke:none;stroke-width:1.2;" width="72" x="1109.196" y="749.8817"/><text fill="#000000" font-family="sans-serif" font-size="16.8" lengthAdjust="spacing" textLength="9.6" x="1109.196" y="766.1239">&#160;&#160;</text><line style="stroke:#000000;stroke-width:1.2;" x1="933.996" x2="1181.196" y1="670.7379" y2="670.7379"/><line style="stroke:#000000;stroke-width:1.2;" x1="933.996" x2="1181.196" y1="690.5239" y2="690.5239"/><line style="stroke:#000000;stroke-width:1.2;" x1="933.996" x2="1181.196" y1="710.3098" y2="710.3098"/><line style="stroke:#000000;stroke-width:1.2;" x1="933.996" x2="1181.196" y1="730.0958" y2="730.0958"/><line style="stroke:#000000;stroke-width:1.2;" x1="933.996" x2="1181.196" y1="749.8817" y2="749.8817"/><line style="stroke:#000000;stroke-width:1.2;" x1="933.996" x2="1181.196" y1="769.6676" y2="769.6676"/><line style="stroke:#000000;stroke-width:1.2;" x1="933.996" x2="933.996" y1="670.7379" y2="769.6676"/><line style="stroke:#000000;stroke-width:1.2;" x1="1109.196" x2="1109.196" y1="670.7379" y2="769.6676"/><line style="stroke:#000000;stroke-width:1.2;" x1="1181.196" x2="1181.196" y1="670.7379" y2="769.6676"/><!--SRC=[VLJRRjf047tVhnYb3mL58TWDILEraJ3GN0Gb0Yf5Yg9eiTTuXRrhsKj8LIhrM_ff_PBExjh1RY0lN6REp9cTEJEAgvZ1u8a91TrLm2Nqw3pcOa68aYae2NEfb4mWu1dp5PU2v4ikKfhH1137r8-KWSnK92kEW8Lq5QiPUrRTc2z4ejFx-C6o2ah8WEKi1QVThbWpAfR6sa6hJx4wf-MIY0SCSendKZCI4hC54m5aV14filbYocRGYscU0_wThgdo8zYG3NoJMK9Zk1jEO0EVtxc3Nk_CkG3Z6qgnC9v6fmsXQXh4XvFpZttlVyGXq82cM87134xF1gvROAOHDc07wDphd7kd1eIrsee9IQc_f0i61rE5NmVmam3SzszWnFq7e3cChdkF_Pl2s6V-CZTcQxfSSKKpw2QfCLxE9e_TqMtTKyk42EsThkPhAKCip36kwNVFgTlTqkvg-sqNXYnKndRRVHmMjebkTsaqYJqfLGGZARYIcV5uu_7iYlogFDJ37o13w5FXip2MCeF6r_5LitZxY3-ph2ZuJWU-roy01xX0_PLD8BOlS7HVZF3Xw48xFzdv2JFbfWuk8xHwJMve38ydJNZY5CoOJSIQOztEySb1ERASsEnsj3exbeFfTH_Wx-y_bTZ3Mk2UEDEhjmEns69i5CUMuAFjccqhDrMc4HLw1rEvng1YgfhIAdLBkILgr6AQBq6jLgaPXASnzLc0ROOmaqBPncjMf4TXu0IgZREPzHpkwjnQIplxj1UwepMQt78Mv6w5F2yNB2ScGqq3Mh9L-XVmVkoMVmik-5tDFvEfONBhqNeHganEoV8QDwcnE2L3LPgrpO66FMxslM_gqruLpMCshLhGNcs-ZjaMjqkNGYfcRwlUs_AE38GviZLfWHIW8fwJn2W7h_XAGOWFKX7JYcxfqmSw7_a7]--></g></svg>